Coordinates
version=1
nRows=14
nColumns=46
inDegrees=yes

Units are S.I. units (second, meters, Newtons, ...)
Angles are in degrees.

endheader
time	pelvis_tilt	pelvis_list	pelvis_rotation	pelvis_tx	pelvis_ty	pelvis_tz	bb_angle	bb_tx	bb_ty	bb_tz	hip_flexion_r	hip_adduction_r	hip_rotation_r	knee_angle_r	knee_angle_r_beta	ankle_angle_r	subtalar_angle_r	mtp_angle_r	crank_angle_r	hip_flexion_l	hip_adduction_l	hip_rotation_l	knee_angle_l	knee_angle_l_beta	ankle_angle_l	subtalar_angle_l	mtp_angle_l	crank_angle_l	lumbar_extension	lumbar_bending	lumbar_rotation	arm_flex_r	arm_add_r	arm_rot_r	elbow_flex_r	pro_sup_r	wrist_flex_r	wrist_dev_r	arm_flex_l	arm_add_l	arm_rot_l	elbow_flex_l	pro_sup_l	wrist_flex_l	wrist_dev_l
      7.50000000	    -12.92212646	     -4.62892451	     -0.86413426	      0.11092146	      1.13247007	     -0.24017543	      0.00000000	      0.50000000	      0.00000000	      0.25000000	     81.25864215	     -9.83922852	     -8.07799828	     86.13963590	      1.50342026	     17.37921080	      6.65099312	      0.00000000	      0.00000000	     59.03215152	    -17.79315027	     -4.38007488	     81.95724496	      1.43042377	      1.24846959	      3.68282446	      0.00000000	      0.00000000	    -55.57325901	      1.08685744	      4.29165304	     89.62826222	     -3.93089091	     30.37931116	     30.77846372	     22.22793010	      0.00000000	      0.00000000	     89.72390033	      0.53132518	     29.23931785	     29.84873495	     18.97434406	      0.00000000	      0.00000000
      7.50500000	    -12.86648302	     -4.68383866	     -0.86467165	      0.11097032	      1.13252699	     -0.24016873	      0.00000000	      0.50000000	      0.00000000	      0.25000000	     80.98939209	     -9.81051763	     -8.17486228	     85.88438092	      1.49896522	     17.57653892	      6.87113104	      0.00000000	      0.00000000	     59.09326969	    -17.91702013	     -4.35020849	     82.20025100	      1.43466503	      1.89204130	      3.06552397	      0.00000000	      0.00000000	    -55.68370181	      1.14763682	      4.37041951	     89.62486104	     -3.87551760	     29.84623812	     31.01343140	     23.03998820	      0.00000000	      0.00000000	     89.71981636	      0.57082779	     28.69475289	     29.96136301	     19.91604916	      0.00000000	      0.00000000
      7.51000000	    -12.99246645	     -4.56962668	     -0.80870411	      0.11087020	      1.13218391	     -0.24030031	      0.00000000	      0.50000000	      0.00000000	      0.25000000	     81.00527783	     -9.87216617	     -8.09138643	     85.69386137	      1.49564003	     17.62282789	      6.78698541	      0.00000000	      0.00000000	     59.34398943	    -17.76464937	     -4.34381985	     82.37210391	      1.43766443	      1.23230163	      3.65547740	      0.00000000	      0.00000000	    -55.47880665	      1.11223329	      4.20467194	     89.63006047	     -3.95313230	     30.54199263	     30.50750146	     23.62107681	      0.00000000	      0.00000000	     89.72346992	      0.48288348	     29.32914331	     29.41070210	     21.09728984	      0.00000000	      0.00000000
      7.51500000	    -13.02135218	     -4.53144814	     -0.78294650	      0.11084625	      1.13211318	     -0.24032666	      0.00000000	      0.50000000	      0.00000000	      0.25000000	     80.86636460	     -9.87438336	     -8.08251741	     85.46686444	      1.49167819	     17.75839314	      6.78864677	      0.00000000	      0.00000000	     59.48489971	    -17.75210995	     -4.34038785	     82.56402972	      1.44101416	      1.17857830	      3.64789219	      0.00000000	      0.00000000	    -55.45829812	      1.11013845	      4.15212922	     89.62654044	     -3.81136332	     29.92213831	     30.37897558	     24.30820273	      0.00000000	      0.00000000	     89.72269158	      0.64292057	     28.64882335	     29.25205829	     21.84791447	      0.00000000	      0.00000000
      7.52000000	    -13.04615880	     -4.49626449	     -0.72760005	      0.11081759	      1.13201443	     -0.24036085	      0.00000000	      0.50000000	      0.00000000	      0.25000000	     80.71510821	     -9.92226674	     -8.11737098	     85.23208335	      1.48758048	     17.93617077	      6.82751893	      0.00000000	      0.00000000	     59.63388020	    -17.71347092	     -4.31143253	     82.75364414	      1.44432356	      1.13496627	      3.62772704	      0.00000000	      0.00000000	    -55.42268775	      1.13810115	      4.10586076	     89.62449309	     -3.72047288	     29.52202038	     30.23425455	     24.99062759	      0.00000000	      0.00000000	     89.72279351	      0.73452213	     28.24231962	     29.10897444	     22.59541649	      0.00000000	      0.00000000
      7.52500000	    -13.04963629	     -4.43365743	     -0.64810334	      0.11080825	      1.13194800	     -0.24053861	      0.00000000	      0.50000000	      0.00000000	      0.25000000	     80.57514756	    -10.02217722	     -8.09295365	     85.03541154	      1.48414791	     18.09069386	      6.99837307	      0.00000000	      0.00000000	     59.74701500	    -17.63261431	     -4.30306513	     82.94279845	      1.44762492	      1.12351546	      3.66271590	      0.00000000	      0.00000000	    -55.42932577	      1.15389197	      4.03722967	     89.62197562	     -3.71625421	     29.06003750	     30.15510836	     25.68737969	      0.00000000	      0.00000000	     89.72208765	      0.86686309	     27.84477728	     28.97879064	     23.35722613	      0.00000000	      0.00000000
      7.53000000	    -13.13787798	     -4.41552156	     -0.65407161	      0.11070511	      1.13169296	     -0.24046986	      0.00000000	      0.50000000	      0.00000000	      0.25000000	     80.50696768	     -9.96862347	     -8.10846481	     84.81269248	      1.48026073	     18.21082073	      6.89214864	      0.00000000	      0.00000000	     59.98323960	    -17.66574260	     -4.29143348	     83.16303494	      1.45146878	      1.08192589	      3.58976779	      0.00000000	      0.00000000	    -55.30364850	      1.15889419	      4.00947253	     89.62653034	     -3.98345150	     30.38439605	     30.07547707	     25.91016820	      0.00000000	      0.00000000	     89.72463372	      0.44550556	     29.36147101	     28.99665981	     23.25132189	      0.00000000	      0.00000000
      7.53500000	    -13.03555700	     -4.48064606	     -0.58659740	      0.11069583	      1.13193904	     -0.24057132	      0.00000000	      0.50000000	      0.00000000	      0.25000000	     80.15970605	     -9.97380465	     -8.21803158	     84.56336693	      1.47590918	     18.54052801	      7.10876650	      0.00000000	      0.00000000	     60.01556291	    -17.72484078	     -4.21147335	     83.34680595	      1.45467618	      1.01811278	      3.66478754	      0.00000000	      0.00000000	    -55.50026790	      1.28438951	      4.04159748	     89.61733300	     -3.95329889	     29.58648842	     30.53432959	     26.57214008	      0.00000000	      0.00000000	     89.71721853	      0.49119650	     28.56549983	     29.33529398	     23.96467326	      0.00000000	      0.00000000
      7.54000000	    -13.14492065	     -4.30982193	     -0.53820207	      0.11060348	      1.13172891	     -0.24069094	      0.00000000	      0.50000000	      0.00000000	      0.25000000	     80.18405857	    -10.07796807	     -8.09811452	     84.37347418	      1.47259493	     18.51226092	      7.08996824	      0.00000000	      0.00000000	     60.19046324	    -17.57003780	     -4.29503050	     83.49918257	      1.45733566	      0.99240693	      3.70027087	      0.00000000	      0.00000000	    -55.32427277	      1.16934933	      3.90979651	     89.62169732	     -3.84252154	     29.35091086	     30.08763623	     26.67230017	      0.00000000	      0.00000000	     89.72472452	      0.73556307	     28.34006641	     28.88842471	     24.06666433	      0.00000000	      0.00000000
      7.54500000	    -13.11514761	     -4.39738867	     -0.53774928	      0.11052891	      1.13174139	     -0.24072757	      0.00000000	      0.50000000	      0.00000000	      0.25000000	     79.93990603	    -10.01817124	     -8.22236721	     84.10959191	      1.46798931	     18.74315150	      7.30708587	      0.00000000	      0.00000000	     60.33717439	    -17.71321655	     -4.23098468	     83.75981634	      1.46188458	      0.96284343	      3.76146945	      0.00000000	      0.00000000	    -55.42363135	      1.26582846	      3.99197732	     89.61447825	     -3.80679853	     28.77330101	     30.48470640	     27.23295384	      0.00000000	      0.00000000	     89.71647563	      0.70526938	     27.76909231	     29.20330535	     24.67019532	      0.00000000	      0.00000000
      7.55000000	    -13.12976588	     -4.29315101	     -0.47947134	      0.11046845	      1.13176173	     -0.24079289	      0.00000000	      0.50000000	      0.00000000	      0.25000000	     79.84031157	    -10.08020079	     -8.15524007	     83.90351136	      1.46439253	     18.68676885	      7.25803041	      0.00000000	      0.00000000	     60.41770727	    -17.60162961	     -4.24401910	     83.89850618	      1.46430517	      0.99085157	      3.80253845	      0.00000000	      0.00000000	    -55.38150513	      1.22219716	      3.88963047	     89.61902899	     -3.70291956	     28.56476232	     30.11767335	     27.51711751	      0.00000000	      0.00000000	     89.72478818	      0.86202894	     27.56296992	     28.86318383	     24.98266839	      0.00000000	      0.00000000
      7.55500000	    -13.24079461	     -4.24747518	     -0.45874462	      0.11034356	      1.13155497	     -0.24083209	      0.00000000	      0.50000000	      0.00000000	      0.25000000	     79.81941574	    -10.06742927	     -8.12915651	     83.68821885	      1.46063496	     18.72122164	      7.18980965	      0.00000000	      0.00000000	     60.64211370	    -17.56519260	     -4.22841025	     84.08867720	      1.46762428	      0.98854652	      3.75650967	      0.00000000	      0.00000000	    -55.24962334	      1.21842766	      3.83382779	     89.62101399	     -3.66258018	     28.54811656	     29.92835539	     27.78912672	      0.00000000	      0.00000000	     89.72258684	      0.86377403	     27.55235478	     28.76351263	     25.28852442	      0.00000000	      0.00000000
      7.56000000	    -13.31012969	     -4.15793244	     -0.44591293	      0.11022285	      1.13139679	     -0.24085091	      0.00000000	      0.50000000	      0.00000000	      0.25000000	     79.78342945	    -10.06048125	     -8.06540317	     83.47876413	      1.45697929	     18.71591172	      6.98355690	      0.00000000	      0.00000000	     60.81457843	    -17.54921072	     -4.28506475	     84.28672472	      1.47108086	      1.00175851	      3.80342874	      0.00000000	      0.00000000	    -55.19151852	      1.20190376	      3.80031418	     89.62080348	     -3.70606986	     28.52345406	     29.95596512	     28.04631385	      0.00000000	      0.00000000	     89.72504295	      0.75745596	     27.54814870	     28.83117284	     25.55697446	      0.00000000	      0.00000000
      7.56500000	    -13.37932396	     -4.16235645	     -0.46392284	      0.11009929	      1.13125268	     -0.24080261	      0.00000000	      0.50000000	      0.00000000	      0.25000000	     79.71018055	     -9.97472787	     -8.06544293	     83.22699999	      1.45258518	     18.64343705	      6.88050586	      0.00000000	      0.00000000	     61.01245039	    -17.62373281	     -4.28810639	     84.51113895	      1.47499763	      0.99946048	      3.75322177	      0.00000000	      0.00000000	    -55.06592787	      1.16261240	      3.71130521	     89.62702793	     -3.66275724	     29.04210257	     29.59344867	     27.83735644	      0.00000000	      0.00000000	     89.72374170	      0.69956479	     28.10133307	     28.60097802	     25.26309838	      0.00000000	      0.00000000
